<?xml version="1.0" standalone="no"?>
<!DOCTYPE svg PUBLIC "-//W3C//DTD SVG 20010904//EN"
 "http://www.w3.org/TR/2001/REC-SVG-20010904/DTD/svg10.dtd">
<svg version="1.0" xmlns="http://www.w3.org/2000/svg"
 width="168.000000pt" height="211.000000pt" viewBox="0 0 168.000000 211.000000"
 preserveAspectRatio="xMidYMid meet">
<metadata>
Created by potrace 1.15, written by Peter Selinger 2001-2017
</metadata>
<g transform="translate(0.000000,211.000000) scale(0.100000,-0.100000)"
fill="#000000" stroke="none">
<path d="M744 2016 c-27 -27 -34 -42 -34 -74 0 -44 26 -84 69 -107 l28 -14 0
-141 c0 -77 -3 -140 -6 -141 -46 -4 -104 -3 -107 3 -3 4 -15 6 -27 4 -18 -2
-22 -10 -24 -42 l-1 -39 8 35 c7 32 7 32 9 8 0 -16 6 -28 11 -28 6 0 11 12 11
28 1 23 2 22 8 -8 6 -33 9 -35 49 -38 23 -2 42 -7 42 -13 0 -5 -48 -9 -110 -9
l-110 0 0 -30 0 -30 125 0 c77 0 125 -4 125 -10 0 -26 17 -5 34 43 10 28 21
58 24 66 4 11 1 11 -16 2 l-22 -12 0 180 0 179 30 10 c33 12 70 65 70 100 0
36 -27 80 -60 97 -49 25 -88 19 -126 -19z m145 -11 c39 -38 36 -98 -7 -136
-49 -44 -119 -34 -148 22 -53 104 73 197 155 114z"/>
<path d="M1244 2016 c-41 -41 -47 -97 -13 -139 24 -32 23 -35 -57 -121 -34
-36 -90 -99 -125 -140 -52 -63 -65 -73 -72 -59 -8 13 -15 4 -33 -42 -13 -32
-24 -62 -24 -67 0 -5 25 5 55 22 30 17 55 27 55 21 0 -6 17 -11 38 -11 33 0
45 -8 104 -67 57 -58 67 -74 70 -108 3 -35 6 -40 26 -38 14 2 22 -3 22 -12 0
-9 -9 -13 -27 -12 -14 1 -28 -3 -30 -9 -2 -7 11 -12 37 -12 38 -1 40 1 34 24
-5 18 -2 24 10 24 9 0 16 8 16 20 0 25 -17 26 -23 3 -3 -12 -5 -8 -6 9 -1 21
3 25 19 21 17 -5 20 0 20 34 0 36 -7 46 -89 126 -71 70 -94 87 -119 87 -22 0
-31 -5 -36 -22 -4 -18 -8 -20 -18 -10 -16 16 -28 15 -28 -4 0 -8 -4 -13 -9
-10 -5 4 -11 1 -13 -6 -3 -8 -7 -8 -11 -2 -3 6 33 56 81 111 48 55 107 125
132 154 39 46 49 54 76 51 16 -2 42 2 57 7 31 12 67 65 67 99 0 36 -27 80 -60
97 -49 25 -88 19 -126 -19z m145 -11 c39 -38 36 -98 -7 -136 -49 -44 -119 -34
-148 22 -23 46 -17 78 21 116 31 31 40 35 72 30 20 -4 48 -18 62 -32z"/>
<path d="M395 1493 c-76 -71 -94 -94 -95 -116 0 -16 4 -26 8 -23 13 7 29 -26
28 -56 -1 -24 2 -28 26 -28 26 0 28 3 28 37 0 31 9 45 68 104 62 64 70 69 110
69 43 0 43 0 40 33 -2 26 -8 33 -28 35 -14 2 -29 10 -33 18 -19 33 -57 14
-152 -73z"/>
<path d="M406 1038 c-21 -30 -20 -54 4 -78 17 -17 33 -20 118 -20 112 0 142
13 142 60 0 52 -19 60 -140 60 -101 0 -110 -2 -124 -22z"/>
<path d="M755 1008 c-42 -30 -54 -44 -42 -46 23 -5 22 -10 -18 -64 l-35 -48
-159 0 -158 0 -7 -31 c-4 -19 -13 -33 -26 -36 -14 -4 -20 -14 -20 -32 0 -20
21 -47 84 -110 l84 -83 -91 -134 -91 -134 -44 0 c-37 0 -50 -6 -78 -34 -27
-27 -34 -42 -34 -74 0 -82 82 -134 156 -99 64 31 82 120 35 171 l-20 21 100
140 c54 77 105 148 111 158 7 9 30 26 51 37 34 18 58 20 280 20 231 0 243 -1
255 -20 7 -13 8 -20 2 -20 -6 0 -13 7 -16 15 -7 18 -76 15 -82 -4 -3 -10 0
-12 12 -8 14 5 15 3 6 -12 -7 -15 -6 -20 6 -25 22 -8 26 -8 19 4 -3 6 1 10 9
10 9 0 16 -4 16 -9 0 -14 -22 -26 -42 -23 -13 2 -16 -1 -12 -13 4 -8 12 -14
19 -13 8 2 14 0 14 -4 3 -31 0 -48 -9 -48 -5 0 -10 9 -10 20 0 28 -25 25 -38
-6 -9 -19 -9 -24 -1 -18 8 5 10 1 7 -14 -4 -15 -2 -19 8 -15 9 3 14 -2 14 -16
0 -13 6 -21 18 -21 9 0 13 4 7 8 -5 4 -11 16 -12 27 -1 17 1 17 18 -5 10 -14
19 -21 19 -16 0 5 7 3 15 -4 8 -6 36 -13 62 -15 26 -2 51 -3 56 -4 4 -1 7 -8
7 -16 0 -12 14 -15 65 -15 51 0 65 3 65 15 0 15 21 18 133 19 l37 0 0 73 c0
66 -2 73 -20 73 -21 0 -25 28 -20 135 2 42 21 80 35 67 7 -6 5 4 -12 60 -4 15
-3 19 5 14 8 -5 12 5 12 34 0 27 -5 43 -15 46 -11 4 -12 11 -5 24 7 13 5 22
-7 31 -14 12 -15 11 -9 -7 4 -14 -1 -29 -18 -47 -13 -14 -23 -27 -21 -29 2 -2
-12 -3 -31 -4 -19 0 -34 2 -34 5 0 4 -10 12 -21 20 -19 11 -21 11 -16 -3 4 -9
2 -16 -3 -16 -6 0 -10 -13 -10 -30 0 -24 4 -30 20 -30 12 0 20 -6 19 -12 -1
-7 -1 -34 0 -60 1 -38 4 -46 16 -42 9 4 15 0 15 -9 0 -8 9 -17 20 -20 12 -3
20 -14 20 -26 0 -12 4 -21 10 -21 5 0 7 -7 3 -16 -5 -13 -9 -10 -18 12 -11 25
-14 26 -20 12 -9 -22 -30 -24 -21 -3 7 18 -3 47 -14 40 -5 -3 -7 -16 -6 -30 2
-13 -1 -22 -5 -19 -5 3 -9 1 -9 -5 0 -6 -12 -22 -27 -36 -25 -22 -36 -25 -109
-25 -79 0 -82 1 -86 25 -3 15 2 32 14 45 24 25 28 25 28 0 0 -11 -6 -20 -14
-20 -8 0 -13 -8 -12 -17 2 -10 7 -18 13 -18 5 0 49 37 96 81 74 69 87 86 87
113 0 19 -6 34 -15 37 -9 4 -15 19 -15 40 l0 34 -211 0 -211 0 -20 25 c-27 34
-61 32 -91 -6 -17 -21 -31 -30 -46 -27 -22 3 -22 4 10 48 18 24 34 39 37 32 7
-23 20 -12 27 26 4 20 11 43 17 50 6 6 7 12 3 12 -4 0 -2 7 5 15 22 27 -4 16
-65 -27z m-463 -757 c68 -61 28 -166 -63 -166 -34 0 -46 6 -70 33 -83 93 40
216 133 133z"/>
</g>
</svg>
