<?xml version="1.0" standalone="no"?>
<!DOCTYPE svg PUBLIC "-//W3C//DTD SVG 20010904//EN"
 "http://www.w3.org/TR/2001/REC-SVG-20010904/DTD/svg10.dtd">
<svg version="1.0" xmlns="http://www.w3.org/2000/svg"
 width="325.000000pt" height="323.000000pt" viewBox="0 0 325.000000 323.000000"
 preserveAspectRatio="xMidYMid meet">
<metadata>
Created by potrace 1.15, written by Peter Selinger 2001-2017
</metadata>
<g transform="translate(0.000000,323.000000) scale(0.100000,-0.100000)"
fill="#000000" stroke="none">
<path d="M305 3202 c-47 -5 -136 -50 -177 -89 -20 -20 -47 -59 -60 -87 l-23
-51 -3 -1359 c-1 -748 1 -1362 6 -1365 4 -3 20 -32 36 -64 28 -59 95 -121 143
-133 12 -4 20 -10 17 -15 -3 -6 542 -8 1363 -7 l1368 3 60 28 c68 32 128 85
146 131 7 17 17 34 22 37 5 3 8 592 7 1364 -1 1313 -1 1359 -20 1412 -34 96
-97 158 -185 182 -28 8 -435 12 -1355 14 -723 1 -1328 1 -1345 -1z m2731 -49
c54 -29 107 -89 130 -149 18 -47 19 -99 19 -1399 l0 -1350 -30 -54 c-34 -62
-73 -95 -145 -122 -49 -18 -91 -19 -1393 -19 -1328 0 -1342 1 -1387 21 -58 26
-96 62 -128 124 l-27 50 0 1370 0 1370 28 47 c36 61 112 113 192 131 11 3 623
4 1360 3 l1340 -1 41 -22z"/>
<path d="M570 1620 l0 -1060 1060 0 1060 0 -2 1058 -3 1057 -1057 3 -1058 2 0
-1060z m2090 0 l0 -1030 -1030 0 -1030 0 0 1030 0 1030 1030 0 1030 0 0 -1030z"/>
<path d="M1463 2536 c-203 -39 -367 -129 -514 -283 -167 -175 -250 -386 -250
-637 0 -418 265 -772 668 -892 119 -36 320 -44 443 -20 288 59 535 253 660
518 67 143 85 230 84 403 -1 133 -4 160 -28 240 -52 174 -121 292 -240 411
-120 120 -239 189 -411 239 -111 33 -299 42 -412 21z m337 -27 c272 -50 514
-237 644 -496 187 -374 73 -859 -262 -1113 -87 -66 -226 -135 -327 -162 -117
-31 -338 -32 -450 -1 -348 95 -610 378 -671 724 -22 129 -14 283 21 404 133
455 579 730 1045 644z"/>
</g>
</svg>
