<?xml version="1.0" standalone="no"?>
<!DOCTYPE svg PUBLIC "-//W3C//DTD SVG 20010904//EN"
 "http://www.w3.org/TR/2001/REC-SVG-20010904/DTD/svg10.dtd">
<svg version="1.0" xmlns="http://www.w3.org/2000/svg"
 width="338.000000pt" height="338.000000pt" viewBox="0 0 338.000000 338.000000"
 preserveAspectRatio="xMidYMid meet">
<metadata>
Created by potrace 1.15, written by Peter Selinger 2001-2017
</metadata>
<g transform="translate(0.000000,338.000000) scale(0.100000,-0.100000)"
fill="#000000" stroke="none">
<path d="M72 1695 l3 -1629 1622 -1 1623 0 0 1623 0 1622 -1338 0 c-736 0
-1468 3 -1625 7 l-287 6 2 -1628z m3218 -5 l0 -1600 -1595 0 -1595 0 0 1600 0
1600 1595 0 1595 0 0 -1600z"/>
<path d="M620 1730 l0 -1040 1040 0 1040 0 -2 1038 -3 1037 -1037 3 -1038 2 0
-1040z m2050 -5 l0 -1015 -1012 2 -1013 3 -3 1013 -2 1012 1015 0 1015 0 0
-1015z"/>
<path d="M1380 1810 l0 -660 525 0 525 0 0 660 0 660 -525 0 -525 0 0 -660z
m1030 5 l0 -635 -505 0 -505 0 0 635 0 635 505 0 505 0 0 -635z"/>
<path d="M976 2425 c-51 -18 -69 -38 -69 -74 0 -40 26 -68 75 -82 94 -25 185
36 158 106 -18 46 -102 73 -164 50z m120 -38 c21 -18 26 -29 21 -49 -16 -64
-168 -64 -184 0 -15 63 105 98 163 49z"/>
<path d="M973 2027 c-46 -17 -66 -41 -66 -78 0 -61 81 -101 161 -79 48 12 75
41 75 80 0 38 -23 64 -72 78 -46 14 -56 14 -98 -1z m121 -38 c14 -11 26 -29
26 -39 0 -30 -47 -60 -95 -60 -48 0 -95 30 -95 60 0 30 47 60 95 60 28 0 51
-7 69 -21z"/>
<path d="M974 1630 c-41 -13 -67 -44 -67 -80 0 -76 111 -109 202 -60 47 25 46
93 -1 124 -30 20 -95 27 -134 16z m120 -41 c14 -11 26 -29 26 -39 0 -10 -12
-28 -26 -39 -59 -47 -176 -10 -161 51 13 49 112 66 161 27z"/>
<path d="M961 1047 c-13 -6 -33 -24 -44 -39 -17 -23 -18 -31 -8 -57 34 -80
198 -80 232 0 10 26 9 34 -8 57 -27 36 -60 52 -108 52 -22 0 -51 -6 -64 -13z
m135 -32 c78 -51 -39 -133 -126 -88 -28 15 -35 24 -35 48 0 58 97 82 161 40z"/>
</g>
</svg>
