<?xml version="1.0" standalone="no"?>
<!DOCTYPE svg PUBLIC "-//W3C//DTD SVG 20010904//EN"
 "http://www.w3.org/TR/2001/REC-SVG-20010904/DTD/svg10.dtd">
<svg version="1.0" xmlns="http://www.w3.org/2000/svg"
 width="187.000000pt" height="213.000000pt" viewBox="0 0 187.000000 213.000000"
 preserveAspectRatio="xMidYMid meet">
<metadata>
Created by potrace 1.15, written by Peter Selinger 2001-2017
</metadata>
<g transform="translate(0.000000,213.000000) scale(0.100000,-0.100000)"
fill="#000000" stroke="none">
<path d="M963 2060 c-38 -23 -53 -48 -53 -90 0 -32 23 -86 38 -92 5 -1 -42
-84 -105 -183 -63 -99 -127 -202 -144 -228 -23 -38 -33 -46 -43 -38 -10 9 -16
-1 -25 -45 -7 -30 -11 -57 -9 -60 3 -2 26 13 53 33 34 27 43 39 32 41 -10 2
-17 5 -17 7 0 3 24 42 53 87 30 46 84 132 122 191 37 59 69 106 71 104 2 -2
-30 -97 -72 -213 -41 -115 -100 -281 -131 -369 -30 -88 -57 -162 -59 -164 -2
-2 -10 2 -19 9 -13 11 -15 4 -15 -61 l0 -74 25 30 c58 69 67 85 51 85 -21 0
-21 0 22 120 30 82 43 105 58 106 49 3 49 3 32 21 -14 14 -20 14 -33 3 -14
-12 -14 -10 -5 16 6 15 15 33 19 39 5 5 11 24 14 40 3 17 42 132 88 258 l82
227 32 0 c109 0 141 163 40 206 -45 19 -64 18 -102 -6z m93 -5 c40 -16 68 -70
58 -110 -8 -32 -59 -75 -89 -75 -59 0 -105 45 -105 103 0 40 52 93 93 96 4 1
23 -6 43 -14z"/>
<path d="M1090 1081 c-5 -11 -10 -46 -10 -79 0 -69 22 -99 64 -88 44 11 60
129 24 173 -16 20 -66 16 -78 -6z"/>
</g>
</svg>
